<svg width="24" height="24" viewBox="0 0 24 24" fill="none" xmlns="http://www.w3.org/2000/svg">
<path d="M15.6526 6.63305L6.35258 16.0893C6.04469 16.4291 5.87927 16.8743 5.89055 17.3327C5.90184 17.7911 6.08897 18.2276 6.41321 18.5519C6.73745 18.8761 7.17396 19.0633 7.63236 19.0745C8.09076 19.0858 8.53595 18.9204 8.87575 18.6125L19.9621 7.36991C20.5778 6.69031 20.9087 5.79993 20.8861 4.88313C20.8635 3.96632 20.4893 3.09331 19.8408 2.44484C19.1923 1.79636 18.3193 1.42209 17.4025 1.39952C16.4857 1.37695 15.5953 1.7078 14.9157 2.32358L3.82941 13.5662C2.82564 14.57 2.26172 15.9314 2.26172 17.3509C2.26172 18.7705 2.82564 20.1319 3.82941 21.1357C4.83319 22.1395 6.19461 22.7034 7.61416 22.7034C9.03372 22.7034 10.3951 22.1395 11.3989 21.1357L20.5649 11.992" stroke="#51526C" stroke-width="1.5" stroke-linecap="round" stroke-linejoin="round"/>
</svg>
